<svg width="25" height="24" viewBox="0 0 25 24" fill="none" xmlns="http://www.w3.org/2000/svg">
<path d="M10.5435 9C10.5435 7.89543 11.4389 7 12.5435 7C13.6481 7 14.5435 7.89543 14.5435 9C14.5435 10.1046 13.6481 11 12.5435 11C11.4389 11 10.5435 10.1046 10.5435 9Z" fill="white"/>
<path d="M11.5435 12.5C9.88661 12.5 8.54346 13.8432 8.54346 15.5C8.54346 16.0523 8.99118 16.5 9.54346 16.5H15.5435C16.0958 16.5 16.5435 16.0523 16.5435 15.5C16.5435 13.8432 15.2004 12.5 13.5435 12.5H11.5435Z" fill="white"/>
<path fill-rule="evenodd" clip-rule="evenodd" d="M8.08692 2.8827C11.0427 2.45796 14.0441 2.45796 16.9999 2.8827C18.4654 3.09329 19.5945 4.28268 19.7286 5.75714L19.8556 7.15287C20.1489 10.3776 20.1489 13.6224 19.8556 16.8472L19.7286 18.2429C19.5945 19.7174 18.4654 20.9068 16.9999 21.1173C14.0441 21.5421 11.0427 21.5421 8.08692 21.1173C6.62143 20.9068 5.49233 19.7174 5.35821 18.2429L5.23124 16.8472C4.93789 13.6224 4.93789 10.3776 5.23124 7.15287L5.35821 5.75714C5.49233 4.28268 6.62143 3.09329 8.08692 2.8827ZM16.7865 4.36745C13.9722 3.96305 11.1146 3.96305 8.30027 4.36745C7.52248 4.47922 6.92322 5.11048 6.85204 5.89303L6.72507 7.28876C6.43994 10.4231 6.43994 13.5769 6.72507 16.7113L6.85204 18.107C6.92323 18.8896 7.52248 19.5208 8.30027 19.6326C11.1146 20.037 13.9722 20.037 16.7865 19.6326C17.5643 19.5208 18.1636 18.8896 18.2348 18.107L18.3617 16.7113C18.6469 13.5769 18.6469 10.4231 18.3617 7.28876L18.2348 5.89303C18.1636 5.11048 17.5643 4.47922 16.7865 4.36745Z" fill="white"/>
</svg>
