<svg width="25" height="24" viewBox="0 0 25 24" fill="none" xmlns="http://www.w3.org/2000/svg">
<path d="M9.54346 3.25C6.36782 3.25 3.79346 5.82436 3.79346 9V16.1069C3.79346 16.5211 4.12925 16.8569 4.54346 16.8569C4.95767 16.8569 5.29346 16.5211 5.29346 16.1069V9C5.29346 6.65279 7.19625 4.75 9.54346 4.75H16.5564C16.9706 4.75 17.3064 4.41421 17.3064 4C17.3064 3.58579 16.9706 3.25 16.5564 3.25H9.54346Z" fill="white"/>
<path fill-rule="evenodd" clip-rule="evenodd" d="M18.9461 6.79327C15.7051 6.43105 12.3819 6.43105 9.14094 6.79327C8.21766 6.89646 7.47573 7.62305 7.3669 8.55349C6.98252 11.84 6.98252 15.16 7.3669 18.4465C7.47573 19.377 8.21766 20.1035 9.14094 20.2067C12.3819 20.569 15.7051 20.569 18.9461 20.2067C19.8693 20.1035 20.6113 19.377 20.7201 18.4465C21.1045 15.16 21.1045 11.84 20.7201 8.55349C20.6113 7.62305 19.8693 6.89646 18.9461 6.79327ZM9.30755 8.28399C12.4378 7.93414 15.6492 7.93414 18.7794 8.28399C19.0168 8.31051 19.2034 8.49822 19.2302 8.72774C19.6011 11.8984 19.6011 15.1016 19.2302 18.2723C19.2034 18.5018 19.0168 18.6895 18.7794 18.716C15.6492 19.0659 12.4378 19.0659 9.30755 18.716C9.0702 18.6895 8.88359 18.5018 8.85675 18.2723C8.48591 15.1016 8.48591 11.8984 8.85675 8.72774C8.88359 8.49822 9.0702 8.31051 9.30755 8.28399Z" fill="white"/>
</svg>
