<svg width="25" height="24" viewBox="0 0 25 24" fill="none" xmlns="http://www.w3.org/2000/svg">
<path fill-rule="evenodd" clip-rule="evenodd" d="M21.9984 5.41575C22.1906 5.70687 22.1585 6.10248 21.9023 6.35876L12.7099 15.5511C12.6156 15.6454 12.498 15.7128 12.3691 15.7465L8.54063 16.7465C8.41576 16.7791 8.28705 16.7784 8.16612 16.7476C8.03755 16.7149 7.91778 16.6482 7.82076 16.5511C7.63249 16.3629 7.55815 16.0889 7.62544 15.8313L8.62544 12.0028C8.65491 11.89 8.7102 11.7786 8.78669 11.6912L18.0132 2.46967C18.0939 2.38891 18.1912 2.32846 18.2971 2.29163C18.3756 2.26432 18.4588 2.25 18.5435 2.25C18.7424 2.25 18.9332 2.32902 19.0738 2.46967L21.9023 5.2981C21.9389 5.33471 21.9709 5.37416 21.9984 5.41575ZM20.3113 5.82843L18.5435 4.06066L10.0253 12.5788L9.40032 14.9716L11.7931 14.3466L20.3113 5.82843Z" fill="white"/>
<path d="M20.185 17.1603C20.4584 14.8227 20.5454 12.4688 20.4459 10.1208C20.4412 10.0084 20.4835 9.89903 20.563 9.81947L21.5463 8.83614C21.6672 8.71524 21.8738 8.79199 21.8851 8.96259C22.0701 11.7522 21.9999 14.5545 21.6748 17.3346C21.4382 19.3571 19.8139 20.9421 17.8019 21.167C14.3353 21.5544 10.7519 21.5544 7.28541 21.167C5.27335 20.9421 3.64902 19.3571 3.41247 17.3346C2.99793 13.7903 2.99793 10.2097 3.41247 6.66548C3.64902 4.64295 5.27335 3.05794 7.28541 2.83306C9.91516 2.53915 12.6121 2.4682 15.2742 2.62021C15.4458 2.63001 15.524 2.83762 15.4025 2.95914L14.41 3.9517C14.3313 4.03039 14.2234 4.07266 14.1121 4.0689C11.8857 3.99381 9.64419 4.07877 7.45202 4.32378C6.12191 4.47244 5.05642 5.52205 4.90231 6.83973C4.50131 10.2682 4.50131 13.7318 4.90231 17.1603C5.05642 18.478 6.12191 19.5276 7.45202 19.6763C10.8078 20.0513 14.2794 20.0513 17.6352 19.6763C18.9654 19.5276 20.0308 18.478 20.185 17.1603Z" fill="white"/>
</svg>
