<svg width="25" height="24" viewBox="0 0 25 24" fill="none" xmlns="http://www.w3.org/2000/svg">
<path fill-rule="evenodd" clip-rule="evenodd" d="M9.47251 4.47033C8.2013 4.32825 6.88539 4.32825 5.61417 4.47033C5.30528 4.50485 5.06168 4.74944 5.02694 5.0465C4.87513 6.34444 4.87513 7.65565 5.02694 8.9536C5.06168 9.25065 5.30528 9.49524 5.61417 9.52977C6.88539 9.67184 8.2013 9.67184 9.47251 9.52977C9.7814 9.49524 10.025 9.25065 10.0597 8.9536C10.2115 7.65565 10.2115 6.34444 10.0597 5.0465C10.025 4.74944 9.7814 4.50485 9.47251 4.47033ZM5.44756 2.97961C6.82951 2.82516 8.25718 2.82516 9.63912 2.97961C10.6299 3.09035 11.4324 3.87034 11.5495 4.87225C11.7149 6.28596 11.7149 7.71413 11.5495 9.12785C11.4324 10.1297 10.6299 10.9097 9.63912 11.0204C8.25718 11.1749 6.82951 11.1749 5.44756 11.0204C4.45672 10.9097 3.65428 10.1297 3.5371 9.12785C3.37175 7.71413 3.37175 6.28596 3.5371 4.87225C3.65428 3.87034 4.45672 3.09035 5.44756 2.97961Z" fill="white"/>
<path fill-rule="evenodd" clip-rule="evenodd" d="M9.47251 14.4703C8.2013 14.3282 6.88539 14.3282 5.61417 14.4703C5.30528 14.5048 5.06168 14.7494 5.02694 15.0465C4.87513 16.3444 4.87513 17.6556 5.02694 18.9535C5.06168 19.2506 5.30528 19.4952 5.61417 19.5297C6.88539 19.6718 8.2013 19.6718 9.47251 19.5297C9.7814 19.4952 10.025 19.2506 10.0597 18.9535C10.2115 17.6556 10.2115 16.3444 10.0597 15.0465C10.025 14.7494 9.7814 14.5048 9.47251 14.4703ZM5.44756 12.9796C6.82951 12.8251 8.25718 12.8251 9.63912 12.9796C10.6299 13.0903 11.4324 13.8703 11.5495 14.8722C11.7149 16.2859 11.7149 17.7141 11.5495 19.1278C11.4324 20.1297 10.6299 20.9097 9.63912 21.0204C8.25718 21.1749 6.82951 21.1749 5.44756 21.0204C4.45672 20.9097 3.65428 20.1297 3.5371 19.1278C3.37175 17.7141 3.37175 16.2859 3.5371 14.8722C3.65428 13.8703 4.45672 13.0903 5.44756 12.9796Z" fill="white"/>
<path fill-rule="evenodd" clip-rule="evenodd" d="M19.4726 4.47033C18.2013 4.32825 16.8854 4.32825 15.6142 4.47033C15.3053 4.50485 15.0617 4.74944 15.027 5.0465C14.8752 6.34444 14.8752 7.65565 15.027 8.9536C15.0617 9.25065 15.3053 9.49524 15.6142 9.52977C16.8854 9.67184 18.2013 9.67184 19.4726 9.52977C19.7815 9.49524 20.0251 9.25065 20.0598 8.9536C20.2116 7.65565 20.2116 6.34444 20.0598 5.0465C20.0251 4.74944 19.7815 4.50485 19.4726 4.47033ZM15.4476 2.97961C16.8296 2.82516 18.2572 2.82516 19.6392 2.97961C20.63 3.09035 21.4325 3.87034 21.5496 4.87225C21.715 6.28596 21.715 7.71413 21.5496 9.12785C21.4325 10.1297 20.63 10.9097 19.6392 11.0204C18.2572 11.1749 16.8296 11.1749 15.4476 11.0204C14.4568 10.9097 13.6543 10.1297 13.5371 9.12785C13.3718 7.71413 13.3718 6.28596 13.5371 4.87225C13.6543 3.87034 14.4568 3.09035 15.4476 2.97961Z" fill="white"/>
<path fill-rule="evenodd" clip-rule="evenodd" d="M19.4726 14.4703C18.2013 14.3282 16.8854 14.3282 15.6142 14.4703C15.3053 14.5048 15.0617 14.7494 15.027 15.0465C14.8752 16.3444 14.8752 17.6556 15.027 18.9535C15.0617 19.2506 15.3053 19.4952 15.6142 19.5297C16.8854 19.6718 18.2013 19.6718 19.4726 19.5297C19.7815 19.4952 20.0251 19.2506 20.0598 18.9535C20.2116 17.6556 20.2116 16.3444 20.0598 15.0465C20.0251 14.7494 19.7815 14.5048 19.4726 14.4703ZM15.4476 12.9796C16.8296 12.8251 18.2572 12.8251 19.6392 12.9796C20.63 13.0903 21.4325 13.8703 21.5496 14.8722C21.715 16.2859 21.715 17.7141 21.5496 19.1278C21.4325 20.1297 20.63 20.9097 19.6392 21.0204C18.2572 21.1749 16.8296 21.1749 15.4476 21.0204C14.4568 20.9097 13.6543 20.1297 13.5371 19.1278C13.3718 17.7141 13.3718 16.2859 13.5371 14.8722C13.6543 13.8703 14.4568 13.0903 15.4476 12.9796Z" fill="white"/>
</svg>
