<svg width="20" height="16" viewBox="0 0 20 16" fill="none" xmlns="http://www.w3.org/2000/svg">
<path fill-rule="evenodd" clip-rule="evenodd" d="M9.68532 12.424C9.78657 12.4752 9.89495 12.4979 10.0002 12.4968C10.1054 12.4979 10.2138 12.4752 10.315 12.424L11.2138 11.97C12.9764 11.0794 15.1321 10.9339 17.0407 11.5768C17.7447 11.8139 18.5106 11.3773 18.5106 10.7388V2.96614C18.5106 2.58084 18.232 2.23436 17.8072 2.09126C15.349 1.26324 12.5724 1.45059 10.3022 2.59767L10.0002 2.75028L9.69814 2.59767C7.42786 1.45059 4.65132 1.26324 2.19313 2.09126C1.76831 2.23436 1.48975 2.58084 1.48975 2.96614V10.7388C1.48975 11.3773 2.2556 11.8139 2.95965 11.5768C4.8682 10.9339 7.02391 11.0794 8.78654 11.97L9.68532 12.424ZM2.67725 3.00536V10.5966C4.89058 9.89789 7.36533 10.0857 9.39755 11.1124L9.40641 11.117V3.61647L9.08713 3.45516C7.14837 2.47557 4.78018 2.31001 2.67725 3.00536ZM10.6028 11.1124L10.5939 11.117V3.61647L10.9132 3.45516C12.852 2.47557 15.2202 2.31001 17.3231 3.00536V10.5966C15.1097 9.89789 12.635 10.0857 10.6028 11.1124Z" fill="white"/>
<path d="M7.84293 12.6949C6.24071 11.9078 4.25948 11.9078 2.65726 12.6949L2.57592 12.7348C2.29267 12.8739 2.197 13.1801 2.36223 13.4186C2.52746 13.6571 2.89101 13.7377 3.17426 13.5986L3.25561 13.5586C4.48808 12.9532 6.0121 12.9532 7.24458 13.5586L8.10533 13.9815C9.27619 14.5566 10.724 14.5566 11.8949 13.9815L12.7556 13.5586C13.9881 12.9532 15.5121 12.9532 16.7446 13.5586L16.8259 13.5986C17.1092 13.7377 17.4727 13.6571 17.6379 13.4186C17.8032 13.1801 17.7075 12.8739 17.4243 12.7348L17.343 12.6949C15.7407 11.9078 13.7595 11.9078 12.1572 12.6949L11.2965 13.1177C10.4954 13.5112 9.50475 13.5112 8.70366 13.1177L7.84293 12.6949Z" fill="white"/>
</svg>
