<svg width="26" height="30" viewBox="0 0 26 30" fill="none" xmlns="http://www.w3.org/2000/svg">
<path fill-rule="evenodd" clip-rule="evenodd" d="M13.6868 7.21519C13.6868 6.54406 13.1555 6 12.5 6C11.8445 6 11.3132 6.54406 11.3132 7.21519V8.12658H10.6516C8.0108 8.12658 5.82513 10.2289 5.66029 12.9275L5.39799 17.2213C5.29799 18.8584 4.76119 20.4361 3.84607 21.7824C3.01923 22.9988 3.75533 24.6789 5.1925 24.8555L9.2362 25.3524V26.6582C9.2362 28.5039 10.6974 30 12.5 30C14.3026 30 15.7638 28.5039 15.7638 26.6582V25.3524L19.8074 24.8555C21.2447 24.6789 21.9808 22.9988 21.1539 21.7824C20.2387 20.4361 19.7019 18.8584 19.602 17.2213L19.3397 12.9275C19.1749 10.2289 16.9892 8.12658 14.3484 8.12658H13.6868V7.21519ZM10.6516 9.94937C8.95086 9.94937 7.54323 11.3033 7.43706 13.0413L7.17477 17.335C7.05443 19.3051 6.40849 21.2035 5.30729 22.8236C5.24753 22.9116 5.30073 23.033 5.40461 23.0457L9.84059 23.5907C11.6071 23.8078 13.3928 23.8078 15.1593 23.5907L19.5954 23.0457C19.6992 23.033 19.7525 22.9116 19.6927 22.8236C18.5915 21.2035 17.9455 19.3051 17.8252 17.335L17.5629 13.0413C17.4567 11.3033 16.0491 9.94937 14.3484 9.94937H10.6516ZM12.5 28.1772C11.6806 28.1772 11.0164 27.4972 11.0164 26.6582V25.7468H13.9835V26.6582C13.9835 27.4972 13.3194 28.1772 12.5 28.1772Z" fill="#0E0E2C"/>
<circle cx="17.5" cy="8" r="8" fill="#FF6600"/>
</svg>
