<svg width="25" height="24" viewBox="0 0 25 24" fill="none" xmlns="http://www.w3.org/2000/svg">
<path fill-rule="evenodd" clip-rule="evenodd" d="M19.766 10.4838C20.7579 11.2513 20.7579 12.7487 19.766 13.5162C16.7685 15.8356 13.4213 17.6638 9.84979 18.9322L9.19732 19.164C7.94904 19.6073 6.63053 18.7628 6.46154 17.4742C5.98938 13.874 5.98938 10.126 6.46154 6.5258C6.63053 5.23725 7.94905 4.39269 9.19732 4.83603L9.84979 5.06777C13.4213 6.33625 16.7685 8.1644 19.766 10.4838ZM18.8481 12.3299C19.0639 12.1629 19.0639 11.8371 18.8481 11.6701C15.9763 9.44802 12.7695 7.69654 9.34777 6.48126L8.6953 6.24953C8.37035 6.13412 7.99691 6.35407 7.94881 6.72085C7.49363 10.1916 7.49363 13.8084 7.94881 17.2792C7.99691 17.6459 8.37035 17.8659 8.69529 17.7505L9.34777 17.5188C12.7695 16.3035 15.9763 14.552 18.8481 12.3299Z" fill="white"/>
</svg>
