<svg width="25" height="24" viewBox="0 0 25 24" fill="none" xmlns="http://www.w3.org/2000/svg">
<path fill-rule="evenodd" clip-rule="evenodd" d="M13.6979 3.36032C13.0268 3.01005 12.1174 3.00465 11.441 3.35402C8.84796 4.69316 6.49609 6.22859 4.43512 7.9316C4.11641 8.19495 3.89023 8.57764 3.89409 9.02808C3.89793 9.47668 4.12871 9.85425 4.44549 10.1133C6.48934 11.7844 8.84315 13.3213 11.3887 14.6498C12.0598 15.0001 12.9692 15.0055 13.6457 14.6561C16.2386 13.317 18.5905 11.7815 20.6515 10.0785C20.9702 9.81517 21.1964 9.43248 21.1925 8.98203C21.1886 8.53344 20.9579 8.15586 20.6411 7.89685C18.5972 6.22568 16.2434 4.68886 13.6979 3.36032ZM12.1293 4.68677C12.3689 4.563 12.7626 4.56417 13.0039 4.6901C15.4332 5.95802 17.6716 7.41672 19.6109 8.99229C17.6601 10.5932 15.4283 12.0472 12.9574 13.3233C12.7177 13.4471 12.324 13.4459 12.0827 13.32C9.65334 12.0521 7.41493 10.5934 5.4757 9.01783C7.42651 7.4169 9.65826 5.96291 12.1293 4.68677Z" fill="white"/>
<path d="M21.7403 12.6981C21.9597 13.0494 21.8527 13.5121 21.5013 13.7315L15.3941 17.5444C14.5654 18.0618 13.5372 18.301 12.5432 18.301C11.5493 18.3011 10.521 18.062 9.69218 17.5447L3.65185 13.775C3.30045 13.5557 3.19337 13.093 3.41268 12.7416C3.63198 12.3902 4.09463 12.2831 4.44602 12.5024L10.4863 16.2722C11.0305 16.6118 11.7697 16.8011 12.5431 16.801C13.3166 16.801 14.0557 16.6116 14.5997 16.272L20.707 12.4591C21.0583 12.2397 21.521 12.3467 21.7403 12.6981Z" fill="white"/>
<path d="M21.7403 16.4527C21.9597 16.8041 21.8527 17.2667 21.5014 17.4861L16.2125 20.789C15.1549 21.4495 13.8319 21.7602 12.5432 21.7603C11.2545 21.7604 9.93141 21.4498 8.87363 20.7895L3.65176 17.5296C3.30039 17.3103 3.19337 16.8476 3.41272 16.4963C3.63206 16.1449 4.09472 16.0379 4.44609 16.2572L9.66795 19.517C10.441 19.9996 11.4749 20.2604 12.5431 20.2603C13.6113 20.2602 14.6451 19.9994 15.418 19.5167L20.7069 16.2139C21.0582 15.9945 21.5209 16.1014 21.7403 16.4527Z" fill="white"/>
</svg>
