<svg width="25" height="24" viewBox="0 0 25 24" fill="none" xmlns="http://www.w3.org/2000/svg">
<path d="M12.5 1.25C12.9142 1.25 13.25 1.58579 13.25 2V3C13.25 3.41421 12.9142 3.75 12.5 3.75C12.0858 3.75 11.75 3.41421 11.75 3V2C11.75 1.58579 12.0858 1.25 12.5 1.25Z" fill="#D8DADB"/>
<path fill-rule="evenodd" clip-rule="evenodd" d="M6.75 12C6.75 8.82436 9.32436 6.25 12.5 6.25C15.6756 6.25 18.25 8.82436 18.25 12C18.25 15.1756 15.6756 17.75 12.5 17.75C9.32436 17.75 6.75 15.1756 6.75 12ZM12.5 7.75C10.1528 7.75 8.25 9.65279 8.25 12C8.25 14.3472 10.1528 16.25 12.5 16.25C14.8472 16.25 16.75 14.3472 16.75 12C16.75 9.65279 14.8472 7.75 12.5 7.75Z" fill="#D8DADB"/>
<path d="M5.95905 4.39862C5.66615 4.10573 5.19128 4.10573 4.89839 4.39862C4.60549 4.69152 4.60549 5.16639 4.89839 5.45929L5.60549 6.16639C5.89839 6.45929 6.37326 6.45929 6.66615 6.16639C6.95905 5.8735 6.95905 5.39862 6.66615 5.10573L5.95905 4.39862Z" fill="#D8DADB"/>
<path d="M23.25 12C23.25 12.4142 22.9142 12.75 22.5 12.75H21.5C21.0858 12.75 20.75 12.4142 20.75 12C20.75 11.5858 21.0858 11.25 21.5 11.25H22.5C22.9142 11.25 23.25 11.5858 23.25 12Z" fill="#D8DADB"/>
<path d="M20.1012 5.45929C20.3941 5.16639 20.3941 4.69152 20.1012 4.39863C19.8083 4.10573 19.3334 4.10573 19.0405 4.39863L18.3334 5.10573C18.0405 5.39863 18.0405 5.8735 18.3334 6.16639C18.6263 6.45929 19.1012 6.45929 19.3941 6.16639L20.1012 5.45929Z" fill="#D8DADB"/>
<path d="M12.5 20.25C12.9142 20.25 13.25 20.5858 13.25 21V22C13.25 22.4142 12.9142 22.75 12.5 22.75C12.0858 22.75 11.75 22.4142 11.75 22V21C11.75 20.5858 12.0858 20.25 12.5 20.25Z" fill="#D8DADB"/>
<path d="M19.3945 17.8336C19.1016 17.5407 18.6268 17.5407 18.3339 17.8336C18.041 18.1265 18.041 18.6014 18.3339 18.8943L19.041 19.6014C19.3339 19.8943 19.8087 19.8943 20.1016 19.6014C20.3945 19.3085 20.3945 18.8336 20.1016 18.5407L19.3945 17.8336Z" fill="#D8DADB"/>
<path d="M4.25 12C4.25 12.4142 3.91421 12.75 3.5 12.75H2.5C2.08579 12.75 1.75 12.4142 1.75 12C1.75 11.5858 2.08579 11.25 2.5 11.25H3.5C3.91421 11.25 4.25 11.5858 4.25 12Z" fill="#D8DADB"/>
<path d="M6.66615 18.8943C6.95904 18.6014 6.95904 18.1265 6.66615 17.8336C6.37325 17.5407 5.89838 17.5407 5.60549 17.8336L4.89838 18.5407C4.60549 18.8336 4.60549 19.3085 4.89838 19.6014C5.19127 19.8943 5.66615 19.8943 5.95904 19.6014L6.66615 18.8943Z" fill="#D8DADB"/>
</svg>
