<svg width="25" height="24" viewBox="0 0 25 24" fill="none" xmlns="http://www.w3.org/2000/svg">
<g clip-path="url(#clip0_6_1006)">
<path d="M17.5435 21V19C17.5435 17.9391 17.122 16.9217 16.3719 16.1716C15.6217 15.4214 14.6043 15 13.5435 15H5.54346C4.48259 15 3.46518 15.4214 2.71503 16.1716C1.96488 16.9217 1.54346 17.9391 1.54346 19V21" stroke="white" stroke-width="2" stroke-linecap="round" stroke-linejoin="round"/>
<path d="M9.54346 11C11.7526 11 13.5435 9.20914 13.5435 7C13.5435 4.79086 11.7526 3 9.54346 3C7.33432 3 5.54346 4.79086 5.54346 7C5.54346 9.20914 7.33432 11 9.54346 11Z" stroke="white" stroke-width="2" stroke-linecap="round" stroke-linejoin="round"/>
<path d="M23.5435 21V19C23.5428 18.1137 23.2478 17.2528 22.7048 16.5523C22.1618 15.8519 21.4016 15.3516 20.5435 15.13" stroke="white" stroke-width="2" stroke-linecap="round" stroke-linejoin="round"/>
<path d="M16.5435 3.13C17.4039 3.35031 18.1665 3.85071 18.7111 4.55232C19.2557 5.25392 19.5513 6.11683 19.5513 7.005C19.5513 7.89318 19.2557 8.75608 18.7111 9.45769C18.1665 10.1593 17.4039 10.6597 16.5435 10.88" stroke="white" stroke-width="2" stroke-linecap="round" stroke-linejoin="round"/>
</g>
<defs>
<clipPath id="clip0_6_1006">
<rect width="24" height="24" fill="white" transform="translate(0.543457)"/>
</clipPath>
</defs>
</svg>
